{"title":"Bob.The.Builder.Project.Build.It[2005]-Bearmeister.avi","uid":4022073,"size":734005248,"categoryP":"video","categoryS":"tv_shows","magnet":"?xt=urn:btih:820d36325ed005491a18cf39bd5f4c01f482cb7b&amp;dn=Bob.The.Builder.Project.Build.It%5B2005%5D-Bearmeister.avi&amp;tr=udp%3A%2F%2Ftracker.openbittorrent.com%3A80&amp;tr=udp%3A%2F%2Fopen.demonii.com%3A1337&amp;tr=udp%3A%2F%2Ftracker.coppersurfer.tk%3A6969&amp;tr=udp%3A%2F%2Fexodus.desync.com%3A6969","seeders":0,"leechers":0,"uploader":"bearmeister","files":1,"time":1202712995,"description":"\nAll Bearmeister torrents located here &lt;a href=&quot;\nhttp://thepiratebay.se/user/bearmeister/&quot; rel=&quot;nofollow&quot; target=&quot;_NEW&quot;&gt;\nhttp://thepiratebay.se/user/bearmeister/&lt;/a&gt;\n\n  Duration: 01:00:29.4, bitrate: 1617 kb/s\n  Stream #0.0: Video: mpeg4, 656x368, 25.00 fps\n  Stream #0.1: Audio: mp3, 48000 Hz, stereo, 113 kb/s\n\nBob and the team have moved to Sunflower Valley to build a new town from scratch by eco-friendly means. Featuring all the old favourite characters in a great new story to tie in with the new TV series. Soundtrack and linking narration to a feature length episode - Bob&amp;#039;s Big Plan and the first six episodes of the Project Build It series. Includes music and sound effects.\n","torrent":{"xt":"urn:btih:820d36325ed005491a18cf39bd5f4c01f482cb7b","amp;dn":"Bob.The.Builder.Project.Build.It%5B2005%5D-Bearmeister.avi","amp;tr":["udp%3A%2F%2Ftracker.openbittorrent.com%3A80","udp%3A%2F%2Fopen.demonii.com%3A1337","udp%3A%2F%2Ftracker.coppersurfer.tk%3A6969","udp%3A%2F%2Fexodus.desync.com%3A6969"],"infoHash":"820d36325ed005491a18cf39bd5f4c01f482cb7b","infoHashBuffer":{"type":"Buffer","data":[130,13,54,50,94,208,5,73,26,24,207,57,189,95,76,1,244,130,203,123]},"announce":[],"urlList":[]}}